# xmcd CD database file
#
# Track frame offsets:
#	150
#	23255
#	45362
#	60375
#	77995
#	93917
#	109957
#	124935
#	140502
#	154180
#	173440
#	194952
#	208642
#
# Disc length: 3275 seconds
#
# Revision: 0
# Processed by: cddbd v1.5.1PL0 Copyright (c) Steve Scherf et al.
# Submitted via: CDex 1.51
#
DISCID=a90cc90d
DTITLE=Cioccolata - Cioccolata Box
DYEAR=1987
DGENRE=JPop
TTITLE0=Pa.chi.la
TTITLE1=Il cieto lontano (いつか見た青空)
TTITLE2=Sandwichman
TTITLE3=Danza
TTITLE4=Birthday (生まれた日)
TTITLE5=Nina from the dark moon (黒い月のニーナ)
TTITLE6=La mia mano
TTITLE7=The dancing cat (猫じかけ)
TTITLE8=Tisstiss (壜のなかから)
TTITLE9=Addio
TTITLE10=Dai Dei D-ya (FUOCO)
TTITLE11=Dai Dei D-ya (AQUA)
TTITLE12=L'alma bella (美しき魂)
EXTD=YEAR: 1987
EXTT0=
EXTT1=
EXTT2=
EXTT3=
EXTT4=
EXTT5=
EXTT6=
EXTT7=
EXTT8=
EXTT9=
EXTT10=
EXTT11=
EXTT12=
PLAYORDER=
